<svg width="100" height="100" viewBox="0 0 100 100" fill="none" xmlns="http://www.w3.org/2000/svg">
<path d="M47.4991 54.0154V41.0156L36.2409 34.5158L24.9829 41.0156V54.0154L36.2409 60.5152L47.4991 54.0154Z" fill="white"/>
<path d="M91.8368 52.0428L99.1735 56.2795L91.8368 60.5162L80.5796 54.0162V41.0162L91.8368 34.5162L98.6593 38.457C99.3429 41.3406 99.7735 44.3203 99.9308 47.3713L95.7593 49.7795V45.251L91.8368 42.9877L87.9144 45.251V49.7795L91.8368 52.0428Z" fill="white"/>
<path d="M94.022 48.7773V46.2539L91.8367 44.9922L89.6511 46.2539V48.7773L91.8367 50.0393L94.022 48.7773Z" fill="white"/>
<path d="M19.6652 41.0164V58.1592L12.157 53.8756V45.0879L8.4082 42.9224L4.65918 45.0877V53.8754L0.395898 56.3082C0.134766 54.2428 0 52.1367 0 50C0 46.0857 0.449023 42.2756 1.3 38.6203L8.4082 34.5162L19.6652 41.0164Z" fill="white"/>
<path d="M47.4979 54.0139L36.24 34.5152L24.9825 41.0149L36.2404 60.5136L47.4979 54.0139Z" fill="white"/>
<path d="M24.9829 54.0154L28.8485 47.7115L24.9829 41.0156V54.0154Z" fill="white"/>
<path d="M43.7458 47.515L47.4989 41.0156L36.2407 34.5158L43.7458 47.515Z" fill="white"/>
<path d="M67.6857 19.449V36.6959L63.9122 34.5162L52.6531 41.0162V54.0162L63.9122 60.5162L75.1695 54.0162V23.4551L67.6857 19.449ZM67.6652 49.6816L63.9121 51.849L60.1589 49.6816V45.349L63.9121 43.1816L67.6652 45.349V49.6816Z" fill="white"/>
<path d="M55.1072 70.0619C55.1072 70.0619 54.8861 68.1617 52.8535 68.1617C50.8207 68.1617 49.4289 68.4268 49.4289 69.5537C49.4289 70.6807 53.3839 70.6807 54.8865 71.1225C56.389 71.5643 57.7146 72.7133 57.0517 74.7461C56.3888 76.7789 54.356 76.9998 51.2185 76.9998C48.081 76.9998 47.3738 74.3924 47.3738 73.3762H49.1414C49.1414 73.3762 48.9203 74.967 50.9972 75.232C53.0742 75.4971 55.0601 75.6463 55.3279 74.0391C55.6814 71.9178 48.6109 72.9785 47.9921 70.9016C47.4695 69.1467 47.771 66.8361 51.3064 66.4824C54.8418 66.1287 56.7861 67.6896 56.7861 70.0178L55.1072 70.0619Z" fill="white"/>
<path d="M38.0317 78.3459L41.9395 80.602C43.903 81.7355 46.3573 80.3185 46.3573 78.0514V74.0979V66.8219H44.7645V77.6084C44.7645 78.8465 43.4243 79.6205 42.3518 79.0012L39.6243 77.4266V65.9148L49.5936 60.1596L59.5629 65.9148V77.4266L49.5936 83.1818L46.7217 81.5238L44.8463 82.2801L49.5934 85.0209L61.1555 78.3453V64.9955L49.5936 58.3203L38.0315 64.9959V78.3459H38.0317Z" fill="white"/>
</svg>
