<svg width="100" height="100" viewBox="0 0 100 100" fill="none" xmlns="http://www.w3.org/2000/svg">
<g clip-path="url(#clip0)">
<path d="M31.25 56.25C34.7018 56.25 37.5 59.0482 37.5 62.5H43.75C43.75 55.5965 38.1535 50 31.25 50C24.3465 50 18.75 55.5965 18.75 62.5V68.75C18.75 75.6535 24.3465 81.25 31.25 81.25C38.1535 81.25 43.75 75.6535 43.75 68.75H37.5C37.5 72.2017 34.7018 75 31.25 75C27.7982 75 25 72.2017 25 68.75V62.5C25 59.0482 27.7982 56.25 31.25 56.25Z" fill="white"/>
<path d="M6.25 90.6248V9.37479C6.25 7.64882 7.64902 6.24979 9.375 6.24979H56.25V18.7498C56.25 22.2016 59.0482 24.9998 62.5 24.9998H75V34.3748H81.25V21.8748C81.2549 21.0441 80.9287 20.2457 80.3438 19.656L61.5937 0.906044C61.0041 0.321083 60.2057 -0.00489322 59.375 -0.000205722H9.375C4.19727 -0.000205722 0 4.19726 0 9.37479V90.6248C0 95.8025 4.19727 99.9998 9.375 99.9998H31.25V93.7498H9.375C7.64922 93.7498 6.25 92.3508 6.25 90.6248Z" fill="white"/>
<path d="M90.625 62.5H84.375C82.649 62.5 81.25 61.101 81.25 59.375C81.25 57.649 82.649 56.25 84.375 56.25H90.625C92.351 56.25 93.75 57.649 93.75 59.375H100C100 54.1973 95.8027 50 90.625 50H84.375C79.1973 50 75 54.1973 75 59.375C75 64.5527 79.1973 68.75 84.375 68.75H90.625C92.351 68.75 93.75 70.149 93.75 71.875C93.75 73.601 92.351 75 90.625 75H84.375C82.649 75 81.25 73.601 81.25 71.875H75C75 77.0527 79.1973 81.25 84.375 81.25H90.625C95.8027 81.25 100 77.0527 100 71.875C100 66.6975 95.8027 62.5 90.625 62.5Z" fill="white"/>
<path d="M56.25 56.25H62.5C64.226 56.25 65.625 57.649 65.625 59.375H71.875C71.875 54.1973 67.6777 50 62.5 50H56.25C51.0723 50 46.875 54.1973 46.875 59.375C46.875 64.5527 51.0723 68.75 56.25 68.75H62.5C64.226 68.75 65.625 70.149 65.625 71.875C65.625 73.601 64.226 75 62.5 75H56.25C54.524 75 53.125 73.601 53.125 71.875H46.875C46.875 77.0527 51.0723 81.25 56.25 81.25H62.5C67.6777 81.25 71.875 77.0527 71.875 71.875C71.875 66.6973 67.6777 62.5 62.5 62.5H56.25C54.524 62.5 53.125 61.101 53.125 59.375C53.125 57.649 54.5242 56.25 56.25 56.25Z" fill="white"/>
</g>
<defs>
<clipPath id="clip0">
<rect width="100" height="100" fill="white"/>
</clipPath>
</defs>
</svg>
