<svg width="100" height="100" viewBox="0 0 100 100" fill="none" xmlns="http://www.w3.org/2000/svg">
<path d="M100 50C100 77.6143 77.6143 100 50 100C22.3857 100 0 77.6143 0 50C0 22.3857 22.3857 0 50 0C75.4877 0 96.5203 19.0715 99.6082 43.7225C99.8326 45.5041 99.9633 47.3143 99.9918 49.149C99.998 49.4326 100 49.7164 100 50Z" fill="white"/>
<path d="M99.9918 49.149C95.7225 54.349 87.3571 53.943 87.3571 53.943C82.1979 76.1695 51.0407 87.4818 29.408 81.9246C7.77757 76.3694 10.7532 50.5694 10.7532 50.5694H74.0614C79.2858 50.5694 79.6838 48.9817 79.6838 48.9817C75.0531 38 82.1981 32.1123 82.1981 32.1123C87.7553 33.1063 89.143 42.6307 89.143 42.6307C93.7041 41.8123 97.3674 42.7858 99.6082 43.7225C99.8326 45.5041 99.9633 47.3143 99.9918 49.149Z" fill="black"/>
<path d="M26.3652 40.5143H17.5V48.5846H26.3652V40.5143Z" fill="black"/>
<path d="M37.5061 40.5143H28.6409V48.5846H37.5061V40.5143Z" fill="black"/>
<path d="M70.9244 40.5143H62.0592V48.5846H70.9244V40.5143Z" fill="black"/>
<path d="M59.7856 40.5143H50.9204V48.5846H59.7856V40.5143Z" fill="black"/>
<path d="M59.7856 19.8756H50.9204V27.9459H59.7856V19.8756Z" fill="black"/>
<path d="M48.6448 40.5143H39.7795V48.5846H48.6448V40.5143Z" fill="black"/>
<path d="M37.5061 30.1939H28.6409V38.2642H37.5061V30.1939Z" fill="black"/>
<path d="M59.7856 30.1939H50.9204V38.2642H59.7856V30.1939Z" fill="black"/>
<path d="M48.6448 30.1939H39.7795V38.2642H48.6448V30.1939Z" fill="black"/>
</svg>
