<svg width="160" height="160" viewBox="0 0 160 160" fill="none" xmlns="http://www.w3.org/2000/svg">
<path d="M160 80C160 119.99 130.658 153.127 92.3266 159.056C91.4613 159.19 90.5894 159.311 89.7144 159.415C86.8997 159.758 84.0394 159.951 81.1428 159.99C80.7609 159.997 80.3822 160 80 160C79.6178 160 79.2391 159.997 78.8572 159.99C75.9609 159.951 73.1003 159.758 70.2856 159.416C69.4106 159.311 68.5387 159.19 67.6734 159.057C29.3422 153.127 0 119.99 0 80C0 35.8172 35.8172 0 80 0C124.183 0 160 35.8172 160 80Z" fill="black"/>
<path d="M160 80C160 83.0137 159.833 85.9884 159.507 88.9175C159.471 89.2441 159.435 89.5738 159.396 89.9003C159.19 91.5591 158.932 93.2047 158.628 94.8309C158.57 95.1541 158.508 95.4741 158.442 95.7909C152.787 124.052 132.245 146.932 105.335 155.902C101.28 156.686 99.8397 154.194 99.8397 152.062C99.8397 149.427 99.9313 140.813 99.9313 130.109C99.9313 122.645 97.3744 117.776 94.5075 115.294C108.362 113.753 122.765 109.319 128.48 92.9597C128.594 92.6397 128.702 92.3131 128.806 91.9834C129.126 90.9875 129.41 89.9491 129.665 88.865C129.74 88.5419 129.815 88.2153 129.884 87.8822C130.632 84.3394 131.037 80.3394 131.037 75.82C131.037 67.0884 127.931 59.9506 122.802 54.3475C123.634 52.3328 126.374 44.1956 122.018 33.1753C122.018 33.1753 115.311 31.0269 100.039 41.3778C93.6456 39.6047 86.7981 38.7166 80 38.6841C73.2016 38.7166 66.3575 39.605 59.9738 41.3778C44.6888 31.0269 37.9688 33.1753 37.9688 33.1753C33.6259 44.1956 36.3656 52.3328 37.195 54.3475C32.0781 59.9506 28.95 67.0887 28.95 75.82C28.95 80.3359 29.355 84.3359 30.1059 87.8788C30.1744 88.2119 30.2463 88.5384 30.3216 88.8616C30.5763 89.9456 30.8638 90.9872 31.1838 91.9831C31.2881 92.3128 31.3994 92.6394 31.5103 92.9594C37.2212 109.289 51.5853 113.786 65.4009 115.356C63.1119 117.355 61.0384 120.884 60.32 126.057C55.755 128.101 44.1763 131.634 37.0416 119.405C37.0416 119.405 32.8097 111.725 24.7772 111.16C24.7772 111.16 16.9697 111.059 24.2319 116.022C24.2319 116.022 29.4728 118.484 33.1134 127.728C33.1134 127.728 37.8091 142.007 60.0653 137.168C60.1012 143.852 60.1731 150.155 60.1731 152.062C60.1731 154.174 58.7069 156.652 54.7069 155.911C27.7812 146.948 7.21625 124.065 1.5575 95.7909V95.7878C1.49219 95.4709 1.43 95.1509 1.37469 94.8309C1.06781 93.2047 0.809687 91.5591 0.607188 89.9003C0.564687 89.5738 0.52875 89.2472 0.492813 88.9175C0.166562 85.9884 0 83.0137 0 80C0 35.8172 35.8237 0 80 0C124.18 0 160 35.8172 160 80Z" fill="white"/>
<path d="M29.5869 113.656C29.0091 113.381 28.3819 113.496 28.2091 113.904C28.0228 114.302 28.3463 114.844 28.9275 115.105C29.4991 115.38 30.1225 115.262 30.2991 114.864C30.5013 114.465 30.1681 113.917 29.5869 113.656Z" fill="white"/>
<path d="M33.3125 116.813C32.7869 116.258 32.065 116.092 31.6735 116.444C31.285 116.803 31.3828 117.551 31.9053 118.106C32.4116 118.665 33.1591 118.831 33.5413 118.478C33.9397 118.119 33.835 117.378 33.3125 116.813Z" fill="white"/>
<path d="M36.7053 121.159C36.2025 120.454 35.4122 120.147 34.919 120.487C34.4162 120.829 34.4162 121.682 34.9059 122.393C35.4022 123.105 36.2022 123.425 36.6953 123.083C37.195 122.736 37.195 121.881 36.7053 121.159Z" fill="white"/>
<path d="M40.5779 125.492C39.8888 124.836 38.9485 124.702 38.5044 125.185C38.0669 125.668 38.2594 126.586 38.9582 127.229C39.6438 127.889 40.5779 128.02 41.0154 127.536C41.4826 127.056 41.2704 126.136 40.5779 125.492Z" fill="white"/>
<path d="M45.6684 128.48C44.7541 128.196 43.8497 128.493 43.6634 129.123C43.4806 129.757 44.0716 130.491 44.9759 130.766C45.8838 131.03 46.7816 130.746 46.9775 130.119C47.1641 129.483 46.5731 128.754 45.6684 128.48Z" fill="white"/>
<path d="M51.7944 129.433C50.8375 129.45 50.0865 129.988 50.0865 130.655C50.0962 131.304 50.8703 131.84 51.8269 131.817C52.7772 131.808 53.5478 131.259 53.5247 130.599C53.525 129.946 52.7444 129.414 51.7944 129.433Z" fill="white"/>
<path d="M59.6178 129.564C59.4969 128.908 58.6482 128.523 57.7044 128.686C56.7738 128.855 56.1013 129.518 56.2188 130.178C56.3363 130.815 57.195 131.213 58.1257 131.043C59.0694 130.867 59.7291 130.208 59.6178 129.564Z" fill="white"/>
</svg>
