<svg width="160" height="160" viewBox="0 0 160 160" fill="none" xmlns="http://www.w3.org/2000/svg">
<path d="M94.0625 80C94.0625 87.7661 87.7661 94.0625 80 94.0625C72.2339 94.0625 65.9375 87.7661 65.9375 80C65.9375 72.2339 72.2339 65.9375 80 65.9375C87.7661 65.9375 94.0625 72.2339 94.0625 80Z" fill="white"/>
<path d="M103.75 37.5H56.25C45.9106 37.5 37.5 45.9106 37.5 56.25V103.75C37.5 114.089 45.9106 122.5 56.25 122.5H103.75C114.089 122.5 122.5 114.089 122.5 103.75V56.25C122.5 45.9106 114.089 37.5 103.75 37.5ZM80 103.438C67.0764 103.438 56.5625 92.9236 56.5625 80C56.5625 67.0764 67.0764 56.5625 80 56.5625C92.9236 56.5625 103.438 67.0764 103.438 80C103.438 92.9236 92.9236 103.438 80 103.438ZM106.875 57.8125C104.286 57.8125 102.188 55.7141 102.188 53.125C102.188 50.5359 104.286 48.4375 106.875 48.4375C109.464 48.4375 111.562 50.5359 111.562 53.125C111.562 55.7141 109.464 57.8125 106.875 57.8125Z" fill="white"/>
<path d="M117.812 0H42.1875C18.9258 0 0 18.9258 0 42.1875V117.812C0 141.074 18.9258 160 42.1875 160H117.812C141.074 160 160 141.074 160 117.812V42.1875C160 18.9258 141.074 0 117.812 0ZM131.875 103.75C131.875 119.258 119.258 131.875 103.75 131.875H56.25C40.7422 131.875 28.125 119.258 28.125 103.75V56.25C28.125 40.7422 40.7422 28.125 56.25 28.125H103.75C119.258 28.125 131.875 40.7422 131.875 56.25V103.75Z" fill="white"/>
</svg>
