<svg width="100" height="100" viewBox="0 0 100 100" fill="none" xmlns="http://www.w3.org/2000/svg">
<path d="M87.8431 21.0121L85.4966 18.6655L69.1104 2.27759C69.1086 2.27586 69.1086 2.27586 69.1086 2.27586L67.7793 0.946552C67.1673 0.336207 66.3552 0 65.4914 0H15.4535C13.4069 0 11.2069 1.57931 11.2069 5.04483V67.2414V95.7534V96.5517C11.2069 97.9948 12.6569 99.4 14.3724 99.8431C14.4604 99.8672 14.5448 99.9 14.6345 99.9172C14.9035 99.9707 15.1776 100 15.4535 100H84.5466C84.8224 100 85.0966 99.9707 85.3655 99.9172C85.4552 99.9 85.5397 99.8672 85.6276 99.8431C87.3431 99.4 88.7931 97.9948 88.7931 96.5517V95.7534V67.2414V24.1C88.7931 22.7776 88.6328 21.8 87.8431 21.0121ZM68.1035 6.14655L82.6466 20.6897H68.1035V6.14655ZM15.4535 96.5517C15.331 96.5517 15.2207 96.5086 15.1121 96.4672C14.8448 96.3397 14.6552 96.0707 14.6552 95.7534V70.6897H85.3448V95.7534C85.3448 96.0707 85.1552 96.3397 84.8879 96.4672C84.7793 96.5086 84.669 96.5517 84.5466 96.5517H15.4535ZM14.6552 67.2414V5.04483C14.6552 4.67069 14.7121 3.44828 15.4535 3.44828H64.7552C64.6983 3.66552 64.6552 3.88966 64.6552 4.12241V23.7586C63.7379 22.931 62.5362 22.4138 61.2069 22.4138C60.2535 22.4138 59.4828 23.1862 59.4828 24.1379C59.4828 25.0897 60.2535 25.8621 61.2069 25.8621C62.1586 25.8621 62.931 26.6362 62.931 27.5862V34.4828C62.931 36.5517 63.8655 38.3897 65.3138 39.6552C63.8655 40.9207 62.931 42.7586 62.931 44.8276V51.7241C62.931 52.6741 62.1586 53.4483 61.2069 53.4483C60.2535 53.4483 59.4828 54.2207 59.4828 55.1724C59.4828 56.1241 60.2535 56.8965 61.2069 56.8965C64.0586 56.8965 66.3793 54.5759 66.3793 51.7241V44.8276C66.3793 42.9259 67.9259 41.3793 69.8276 41.3793C70.7811 41.3793 71.5517 40.6069 71.5517 39.6552C71.5517 38.7034 70.7811 37.931 69.8276 37.931C67.9259 37.931 66.3793 36.3845 66.3793 34.4828V27.5862C66.3793 26.2569 65.8604 25.0552 65.0345 24.1379H84.6707C84.9035 24.1379 85.1276 24.0948 85.3448 24.0379C85.3448 24.0638 85.3466 24.0741 85.3466 24.1V67.2414H14.6552Z" fill="white"/>
<path d="M43.7138 88.6724C43.681 89.4414 43.419 89.9897 42.9241 90.3103C42.4293 90.631 41.7638 90.7931 40.9328 90.7931C40.6034 90.7931 40.25 90.7552 39.8724 90.6759C39.4948 90.5965 39.1328 90.5069 38.7879 90.4052C38.4414 90.3017 38.1241 90.1931 37.8328 90.0759C37.5414 89.9586 37.3172 89.8431 37.1603 89.7345L35.9586 91.6431C36.2724 91.8793 36.6569 92.0914 37.1138 92.2793C37.569 92.4672 38.0448 92.6362 38.5397 92.7862C39.0345 92.9362 39.5138 93.0448 39.9776 93.1155C40.4414 93.1862 40.8448 93.2224 41.1914 93.2224C41.881 93.2224 42.5552 93.1552 43.2069 93.0224C43.8586 92.8897 44.4362 92.6534 44.9397 92.3155C45.4414 91.9776 45.8414 91.5293 46.1414 90.9724C46.4397 90.4155 46.5897 89.7259 46.5897 88.9103V75.3793H43.7138V88.6724Z" fill="white"/>
<path d="M58.7639 84.5931C58.2225 84.2 57.6363 83.8655 57.007 83.5914C56.3777 83.3172 55.7966 83.0345 55.2622 82.7431C54.726 82.4517 54.2794 82.1155 53.9191 81.7293C53.557 81.3431 53.3777 80.8362 53.3777 80.2086C53.3777 79.9569 53.4398 79.6931 53.5656 79.419C53.6898 79.1448 53.8639 78.8965 54.0846 78.6759C54.3035 78.4552 54.5553 78.2724 54.8397 78.1224C55.1242 77.9724 55.4208 77.8828 55.7363 77.8517C56.3018 77.8052 56.7656 77.7965 57.1277 77.8276C57.488 77.8603 57.7794 77.9138 58.0001 77.9931C58.2191 78.0724 58.3897 78.15 58.507 78.2293C58.6242 78.3086 58.7311 78.3707 58.826 78.4172C58.8415 78.4017 58.888 78.3224 58.9673 78.181C59.0449 78.0397 59.1398 77.8621 59.2501 77.65C59.3587 77.4379 59.4777 77.2103 59.6035 76.9672C59.7277 76.7224 59.8398 76.5 59.9329 76.2948C59.476 75.9965 58.8794 75.7793 58.1415 75.6466C57.4018 75.5138 56.6708 75.4465 55.9501 75.4465C55.2432 75.4465 54.5708 75.5552 53.9346 75.7759C53.2984 75.9966 52.7415 76.3155 52.2604 76.731C51.7794 77.1466 51.4001 77.6534 51.1173 78.2517C50.8346 78.85 50.6897 79.5345 50.6897 80.3034C50.6897 81.1517 50.8691 81.8586 51.2311 82.4241C51.5915 82.9897 52.0484 83.481 52.5984 83.8965C53.1466 84.3121 53.7363 84.6741 54.3656 84.981C54.9932 85.2879 55.5794 85.5931 56.1225 85.9C56.6656 86.2069 57.1156 86.5483 57.4777 86.9259C57.838 87.3034 58.0191 87.7586 58.0191 88.2931C58.0191 89.1741 57.7639 89.8379 57.2535 90.2845C56.7432 90.731 56.007 90.9569 55.0501 90.9569C54.7346 90.9569 54.3966 90.9241 54.0363 90.8621C53.6742 90.8 53.3122 90.7172 52.9518 90.6138C52.5897 90.5103 52.2415 90.4017 51.9035 90.2845C51.5656 90.1672 51.2863 90.0448 51.0673 89.919L50.5725 91.9465C50.838 92.1828 51.1587 92.3828 51.5277 92.5483C51.8966 92.7138 52.2846 92.8431 52.6949 92.9379C53.1018 93.0328 53.5087 93.1 53.9087 93.1379C54.3087 93.1759 54.6984 93.1965 55.076 93.1965C55.9553 93.1965 56.7415 93.0638 57.4329 92.7965C58.1225 92.5293 58.7053 92.1724 59.1777 91.7241C59.6501 91.2759 60.0139 90.7569 60.2742 90.169C60.5346 89.581 60.6639 88.9707 60.6639 88.3414C60.6639 87.4138 60.4829 86.6552 60.1225 86.0672C59.757 85.4776 59.3053 84.9862 58.7639 84.5931Z" fill="white"/>
<path d="M35.3448 34.4828V27.5862C35.3448 26.6362 36.1172 25.8621 37.069 25.8621C38.0224 25.8621 38.7931 25.0897 38.7931 24.1379C38.7931 23.1862 38.0224 22.4138 37.069 22.4138C34.2172 22.4138 31.8965 24.7345 31.8965 27.5862V34.4828C31.8965 36.3845 30.35 37.931 28.4483 37.931C27.4948 37.931 26.7241 38.7034 26.7241 39.6552C26.7241 40.6069 27.4948 41.3793 28.4483 41.3793C30.35 41.3793 31.8965 42.9259 31.8965 44.8276V51.7241C31.8965 54.5759 34.2172 56.8966 37.069 56.8966C38.0224 56.8966 38.7931 56.1241 38.7931 55.1724C38.7931 54.2207 38.0224 53.4483 37.069 53.4483C36.1172 53.4483 35.3448 52.6741 35.3448 51.7241V44.8276C35.3448 42.7586 34.4103 40.9207 32.9621 39.6552C34.4103 38.3897 35.3448 36.5517 35.3448 34.4828Z" fill="white"/>
<path d="M49.138 36.2069C50.5663 36.2069 51.7242 35.049 51.7242 33.6207C51.7242 32.1924 50.5663 31.0345 49.138 31.0345C47.7096 31.0345 46.5518 32.1924 46.5518 33.6207C46.5518 35.049 47.7096 36.2069 49.138 36.2069Z" fill="white"/>
<path d="M49.138 43.1034C48.1845 43.1034 47.4138 43.8759 47.4138 44.8276V50C47.4138 50.9517 48.1845 51.7241 49.138 51.7241C50.0914 51.7241 50.8621 50.9517 50.8621 50V44.8276C50.8621 43.8759 50.0914 43.1034 49.138 43.1034Z" fill="white"/>
</svg>
