<svg width="160" height="160" viewBox="0 0 160 160" fill="none" xmlns="http://www.w3.org/2000/svg">
<path d="M144 0H16C7.2 0 0 7.2 0 16V144C0 152.8 7.2 160 16 160H144C152.8 160 160 152.8 160 144V16C160 7.2 152.8 0 144 0ZM48 136H24V64H48V136ZM36 50.4C28 50.4 21.6 44 21.6 36C21.6 28 28 21.6 36 21.6C44 21.6 50.4 28 50.4 36C50.4 44 44 50.4 36 50.4ZM136 136H112V93.6C112 87.2003 106.4 81.6 100 81.6C93.6 81.6 88 87.2003 88 93.6V136H64V64H88V73.6C92 67.2 100.8 62.4 108 62.4C123.2 62.4 136 75.2 136 90.4V136Z" fill="white"/>
</svg>
