<svg width="100" height="100" viewBox="0 0 100 100" fill="none" xmlns="http://www.w3.org/2000/svg">
<path d="M100 50C100 66.4734 92.0326 81.0857 79.7428 90.1959C74.5978 94.0082 68.6959 96.857 62.3039 98.4734C58.3674 99.4715 54.2469 100 50 100C45.7531 100 41.6307 99.4715 37.6939 98.4734C31.3021 96.857 25.4 94.0082 20.2551 90.1937C7.96523 81.0836 0 66.4715 0 50C0 22.3857 22.3857 0 50 0C77.6143 0 100 22.3857 100 50Z" fill="white"/>
<path d="M79.3205 71.8795C79.0857 70.3061 78.7755 68.6856 78.392 67.0285C78.0531 65.5735 77.6593 64.0897 77.2125 62.5836C76.0369 58.6285 74.4881 54.5184 72.6105 50.3633C71.7881 48.5469 70.9023 46.7225 69.9574 44.9C69.1248 43.294 68.2472 41.6858 67.3226 40.0877C66.4002 38.4877 65.4492 36.9244 64.4716 35.4C63.3675 33.6715 62.2308 31.994 61.0675 30.3735C58.4103 26.6694 55.6248 23.2715 52.7859 20.2754C51.7064 19.1346 50.6185 18.053 49.5267 17.0346C48.2839 15.8713 47.0349 14.7918 45.7879 13.802C37.647 7.3387 30.3593 5.39788 25.2634 8.3387C20.1675 11.2815 18.2043 18.5631 19.7308 28.8469C19.9634 30.4203 20.2757 32.0408 20.6615 33.6979C20.9963 35.153 21.39 36.6367 21.839 38.1428C23.0146 42.0979 24.5634 46.2102 26.4431 50.3631C27.2636 52.1795 28.1492 54.0018 29.0941 55.8242C29.9267 57.4324 30.8064 59.0385 31.7289 60.6385C32.6513 62.2385 33.6023 63.8018 34.5798 65.3262C35.6859 67.0569 36.8226 68.7344 37.9839 70.3547C40.6412 74.0588 43.4267 77.4547 46.2656 80.4506C47.3453 81.5914 48.4349 82.675 49.5267 83.6934C50.7695 84.8567 52.0185 85.9342 53.2634 86.924C56.2574 89.3016 59.1349 91.0668 61.8308 92.1996C68.2226 90.5832 74.1248 87.7344 79.2695 83.9221C79.9877 80.6121 80.0142 76.5571 79.3205 71.8795ZM74.7367 83.1795C74.1427 85.7469 73.0509 87.5061 71.4898 88.4061C69.9306 89.308 67.8613 89.3735 65.3408 88.6061C62.6101 87.7713 59.4224 85.9469 56.1205 83.3244C55.0103 82.4428 53.898 81.4836 52.7857 80.4529C51.6959 79.4406 50.606 78.359 49.5246 77.2141C47.6673 75.2488 45.8306 73.0977 44.0388 70.7897C42.8429 69.2488 41.6654 67.6387 40.5164 65.9672C38.849 63.5447 37.2388 60.9938 35.7082 58.3406C34.1755 55.6875 32.7714 53.0182 31.5082 50.3631C30.6347 48.5324 29.8285 46.708 29.0939 44.902C27.9898 42.1959 27.0449 39.5285 26.2714 36.9387C25.8224 35.4285 25.4287 33.9469 25.1 32.4959C24.7611 31.0184 24.4857 29.5735 24.2775 28.1715C23.6572 24.0022 23.6714 20.3287 24.3142 17.5471C24.9082 14.9797 26.0019 13.2205 27.5611 12.3205C28.4039 11.8348 29.3937 11.5899 30.5222 11.5899C31.4855 11.5899 32.5507 11.7674 33.7099 12.1225C36.4406 12.9551 39.6283 14.7817 42.9302 17.4022C44.0404 18.2838 45.1546 19.243 46.265 20.2778C47.3568 21.2879 48.4447 22.3696 49.5242 23.5125C51.3834 25.4778 53.2201 27.6289 55.014 29.9391C56.2099 31.4799 57.3875 33.0901 58.5365 34.7615C60.2017 37.184 61.8121 39.735 63.3425 42.386C64.8752 45.0391 66.2793 47.7084 67.5425 50.3635C68.416 52.1961 69.2222 54.0207 69.9568 55.8268C71.0609 58.5328 72.0058 61.1983 72.7793 63.7879C73.2283 65.2981 73.622 66.7797 73.9527 68.2307C74.2894 69.7082 74.565 71.1531 74.7732 72.5551C75.3939 76.7244 75.3797 80.3979 74.7367 83.1795Z" fill="black"/>
<path d="M83.0572 35.3203C81.5775 34.7367 80.0184 34.1959 78.3898 33.6979C76.9613 33.2631 75.4797 32.8612 73.951 32.4959C69.9387 31.5367 65.6041 30.8225 61.0674 30.3735C59.0857 30.1754 57.0633 30.0307 55.0143 29.9387C53.2061 29.8551 51.3734 29.8121 49.5266 29.8121C47.6797 29.8121 45.8469 29.8549 44.0367 29.9387C41.9857 30.0305 39.9633 30.1776 37.9816 30.3735C33.4449 30.8225 29.1123 31.5367 25.1 32.4959C23.5715 32.8612 22.0898 33.2633 20.6611 33.6979C19.0326 34.1938 17.4734 34.7367 15.9937 35.3203C6.32656 39.1365 1 44.4795 1 50.3631C1 56.2467 6.32656 61.5897 15.9939 65.408C17.4736 65.9916 19.0307 66.5324 20.6592 67.0305C22.0877 67.4653 23.5693 67.8672 25.098 68.2305C29.1104 69.1916 33.4449 69.9039 37.9838 70.3549C39.9654 70.5508 41.9879 70.6957 44.0389 70.7897C45.8471 70.8733 47.6797 70.9141 49.5266 70.9141C51.3734 70.9141 53.2041 70.8733 55.0123 70.7897C57.0633 70.6957 59.0838 70.5508 61.0674 70.3549C65.6041 69.9059 69.9408 69.1916 73.9531 68.2305C75.4816 67.8653 76.9633 67.4653 78.392 67.0285C80.0185 66.5326 81.5777 65.9918 83.0572 65.408C92.7266 61.5897 98.0512 56.2469 98.0512 50.3631C98.051 44.4795 92.7266 39.1365 83.0572 35.3203ZM90.551 55.7875C88.4652 57.7365 85.2898 59.5834 81.3693 61.1324C80.049 61.6528 78.6611 62.1385 77.2121 62.5834C75.7896 63.0223 74.3102 63.4242 72.7795 63.7875C70.1488 64.4141 67.3672 64.9283 64.4713 65.3264C62.5406 65.5938 60.559 65.808 58.5365 65.9653C55.6039 66.2 52.5896 66.3184 49.5264 66.3184C46.4631 66.3184 43.4488 66.2 40.5162 65.9674C38.4938 65.8082 36.5102 65.594 34.5795 65.3266C31.6836 64.9285 28.902 64.4143 26.2713 63.7877C24.7406 63.4244 23.2611 63.0225 21.8387 62.5836C20.3896 62.1387 19.002 61.653 17.6814 61.1326C13.7611 59.5836 10.5855 57.7367 8.4998 55.7877C6.57324 53.9897 5.5957 52.1653 5.5957 50.3633C5.5957 48.5614 6.57324 46.7367 8.4998 44.9389C10.5855 42.9899 13.7609 41.143 17.6814 39.594C19.0018 39.0737 20.3896 38.5879 21.8387 38.143C23.2611 37.7041 24.7406 37.3022 26.2713 36.9389C28.902 36.3123 31.6836 35.7981 34.5795 35.4C36.5102 35.1326 38.4938 34.9184 40.5162 34.7592C43.4488 34.5266 46.4631 34.4082 49.5264 34.4082C52.5896 34.4082 55.6039 34.5266 58.5365 34.7614C60.559 34.9186 62.5406 35.1328 64.4713 35.4002C67.3672 35.7983 70.1488 36.3125 72.7795 36.9391C74.3102 37.3024 75.7896 37.7043 77.2121 38.1432C78.6611 38.5881 80.0488 39.0739 81.3693 39.5942C85.2896 41.1432 88.4652 42.9901 90.551 44.9391C92.4775 46.7371 93.4551 48.5615 93.4551 50.3635C93.4551 52.1653 92.4775 53.9897 90.551 55.7875Z" fill="black"/>
<path d="M73.7877 8.3387C68.6918 5.39788 61.4041 7.3387 53.2633 13.802C52.0183 14.7918 50.7693 15.8713 49.5265 17.0346C48.4347 18.053 47.3449 19.1365 46.2654 20.2774C43.4265 23.2733 40.641 26.6692 37.9818 30.3733C36.8207 31.9936 35.6838 33.6713 34.5799 35.3998C33.6023 36.9242 32.6514 38.4875 31.7289 40.0875C30.8064 41.6875 29.9269 43.2936 29.0941 44.9018C28.1492 46.7242 27.2635 48.5487 26.4431 50.3629C24.5635 54.518 23.0146 58.6281 21.839 62.5832C21.39 64.0914 20.9963 65.575 20.6594 67.0301C20.2758 68.6873 19.9635 70.3057 19.7308 71.8791C19.0369 76.5547 19.0635 80.6098 19.7818 83.9199C24.9267 87.7342 30.8287 90.5832 37.2207 92.1996C39.9166 91.067 42.7941 89.3016 45.7881 86.924C47.0349 85.9342 48.284 84.8547 49.5269 83.6934C50.6187 82.675 51.7066 81.5934 52.7861 80.4526C55.6228 77.4567 58.4105 74.0586 61.0678 70.3545C62.2289 68.734 63.3658 67.0565 64.4719 65.326C65.4494 63.8016 66.4004 62.2383 67.3228 60.6383C68.2472 59.0403 69.1248 57.4342 69.9576 55.826C70.9025 54.0035 71.7883 52.1791 72.6107 50.3627C74.4883 46.2096 76.0373 42.0975 77.2127 38.1424C77.6595 36.6364 78.0535 35.1526 78.3902 33.6975C78.776 32.0403 79.0861 30.4199 79.3209 28.8465C80.8469 18.5631 78.8838 11.2815 73.7877 8.3387ZM72.7797 36.9387C72.0062 39.5285 71.0613 42.1938 69.9572 44.8998C69.2224 46.7059 68.4164 48.5305 67.5429 50.3631C66.2797 53.0182 64.8756 55.6875 63.3429 58.3406C61.8123 60.9916 60.2021 63.5426 58.5369 65.9651C57.3859 67.6385 56.2084 69.2486 55.0125 70.7895C53.2207 73.0977 51.384 75.2486 49.5248 77.2139C48.4453 78.3567 47.3574 79.4383 46.2656 80.4506C45.1554 81.4832 44.0412 82.4424 42.9308 83.324C39.6289 85.9465 36.441 87.7709 33.7105 88.6057C31.1902 89.3731 29.1207 89.3076 27.5615 88.4057C26.0023 87.5057 24.9084 85.7465 24.3146 83.1791C23.6719 80.3975 23.6574 76.724 24.2779 72.5547C24.4861 71.1528 24.7615 69.7078 25.0982 68.2303C25.4289 66.7793 25.8226 65.2977 26.2717 63.7875C27.0451 61.1977 27.99 58.5303 29.0941 55.8242C29.8289 54.0182 30.6349 52.1936 31.5084 50.3631C32.7717 47.708 34.1758 45.0387 35.7084 42.3856C37.239 39.7324 38.8492 37.1815 40.5166 34.759C41.6656 33.0875 42.841 31.4774 44.0369 29.9387C45.8308 27.6285 47.6676 25.4776 49.5246 23.5121C50.6062 22.3672 51.6961 21.2856 52.7857 20.2754C53.898 19.2428 55.0101 18.2836 56.1205 17.402C59.4224 14.7817 62.6103 12.9551 65.3408 12.1223C66.5 11.7672 67.5652 11.5897 68.5285 11.5897C69.657 11.5897 70.6488 11.8346 71.4896 12.3203C73.0508 13.2203 74.1428 14.9795 74.7365 17.5469C75.3793 20.3285 75.3937 24.002 74.7732 28.1713C74.565 29.5733 74.2896 31.0182 73.9508 32.4957C73.6224 33.9467 73.2285 35.4283 72.7797 36.9387Z" fill="black"/>
<path d="M49.5266 59.4834C54.5636 59.4834 58.6469 55.4001 58.6469 50.3631C58.6469 45.3261 54.5636 41.2428 49.5266 41.2428C44.4896 41.2428 40.4062 45.3261 40.4062 50.3631C40.4062 55.4001 44.4896 59.4834 49.5266 59.4834Z" fill="black"/>
</svg>
