<svg width="90" height="90" viewBox="0 0 90 90" fill="none" xmlns="http://www.w3.org/2000/svg">
<path d="M45 0C20.151 0 0 20.151 0 45C0 69.849 20.151 90 45 90C69.849 90 90 69.849 90 45C90 20.151 69.849 0 45 0ZM45.9538 71.2003C45.9531 71.2003 45.9544 71.2003 45.9538 71.2003H45.9428C41.4349 71.1983 37.0054 70.0681 33.0716 67.923L18.7942 71.6673L22.6154 57.7146C20.2581 53.6318 19.018 48.9997 19.0201 44.2543C19.0263 29.409 31.1085 17.3316 45.9538 17.3316C53.158 17.3344 59.9208 20.1386 65.0054 25.2274C70.0907 30.3168 72.8895 37.0816 72.8867 44.2756C72.8806 59.1216 60.797 71.2003 45.9538 71.2003V71.2003Z" fill="white"/>
<path d="M45.9625 21.8793C33.6146 21.8793 23.5724 31.9173 23.5669 44.2564C23.5655 48.4847 24.7493 52.6025 26.9898 56.1655L27.522 57.0122L25.2602 65.2705L33.7327 63.0485L34.5505 63.5332C37.9871 65.5726 41.9271 66.6513 45.944 66.6527H45.9529C58.2912 66.6527 68.3334 56.6139 68.3389 44.2742C68.341 38.2942 66.0146 32.672 61.7883 28.4422C57.562 24.2125 51.9411 21.8813 45.9625 21.8793V21.8793ZM59.1296 53.8776C58.5686 55.4487 55.8804 56.8831 54.5875 57.0767C53.4277 57.2498 51.961 57.3219 50.3488 56.8103C49.371 56.4999 48.1179 56.0859 46.5118 55.3931C39.7614 52.4789 35.3525 45.6839 35.016 45.2348C34.6796 44.7858 32.2681 41.5867 32.2681 38.275C32.2681 34.964 34.0066 33.336 34.6233 32.663C35.2406 31.9894 35.9698 31.8212 36.4181 31.8212C36.8665 31.8212 37.3156 31.8253 37.7077 31.8446C38.121 31.8652 38.6758 31.6873 39.2217 32.9995C39.7827 34.3467 41.1285 37.6577 41.2968 37.9942C41.465 38.3313 41.5769 38.7241 41.3531 39.1731C41.1285 39.6222 40.3828 40.591 39.6708 41.4741C39.3721 41.8442 38.9828 42.1738 39.3755 42.8474C39.7676 43.5203 41.1189 45.7237 43.1191 47.5076C45.6899 49.7997 47.8583 50.5096 48.5313 50.8468C49.2035 51.1832 49.5962 51.1269 49.989 50.6786C50.3811 50.2295 51.6713 48.7141 52.1197 48.0405C52.568 47.3669 53.0171 47.4795 53.6337 47.704C54.251 47.9279 57.5593 49.5559 58.2322 49.8923C58.9051 50.2295 59.3535 50.3977 59.5217 50.6786C59.6906 50.9594 59.6906 52.3059 59.1296 53.8776V53.8776Z" fill="white"/>
</svg>
